# xmcd
#
# Track frame offsets:
#	150
#	12113
#	26271
#	38059
#	47700
#	64029
#	78353
#	89394
#	104607
#	117631
#	139351
#	152938
#	167674
#	179759
#	193640
#	209798
#	228271
#	241142
#	257637
#	273091
#
# Disc length: 3850 seconds
#
# Revision: 0
# Processed by: cddbd v1.5.2PL0 Copyright (c) Steve Scherf et al.
# Submitted via: EasyCDDAExtractor 16.0.6.1
#
DISCID=170f0814
DTITLE=Nos Tempos do Xadrezinho Vol. III
DYEAR=1900
DGENRE=
TTITLE0=Nilsson - Everybody's Talkin'
TTITLE1=The Beatles - Ob-La-Di, Ob-La-Da
TTITLE2=Joe Jeffrey - My Pledge Of Love
TTITLE3=New Vanderville - Winchester Cathedral
TTITLE4=Alice Cooper - I Never Cry
TTITLE5=Elton John - Goodbye Yellow Brick Road
TTITLE6=The Beatles - And I Love Her
TTITLE7=The Mamas and The Papas - Monday, Monday
TTITLE8=John Phillips - San Francisco
TTITLE9=Simon and Garfunkel - Bridge Over Troubled Water
TTITLE10=John Lennon - Imagine
TTITLE11=Demi Roussos - Forever And Ever
TTITLE12=The Beatles - Michelle
TTITLE13=Jimmy Cliff - I Can See Clearly Now
TTITLE14=The Beatles - The Long And Winding Road
TTITLE15=Paul MacCartney - My Love
TTITLE16=Jack Jones - You've Got Your Trobles
TTITLE17=Paul MacCartney - Another Day
TTITLE18=John Lennon - Stand By Me
TTITLE19=Harald Melvin - If You Don't Know Me By Now
EXTD=
EXTT0=
EXTT1=
EXTT2=
EXTT3=
EXTT4=
EXTT5=
EXTT6=
EXTT7=
EXTT8=
EXTT9=
EXTT10=
EXTT11=
EXTT12=
EXTT13=
EXTT14=
EXTT15=
EXTT16=
EXTT17=
EXTT18=
EXTT19=
PLAYORDER=
